<svg xmlns="http://www.w3.org/2000/svg" viewBox="0 0 512 512" fill="#bda662">
<path d="M256 0c-4.4 0-8.6 1.5-11.8 4.3C211 32 176 83 176 136c0 36.3 12.3 70 33.1 96.9c-27-23.3-61.9-36.9-97.1-36.9C50.1 196 0 246.1 0 308c0 39.8 20.8 74.5 52 94.1C18.6 422 0 452 0 480c0 17.7 14.3 32 32 32c10.4 0 20.2-5 26.5-13.4c21.4-28.5 56.4-46.6 94.7-46.6c6.2 0 12.3 .5 18.2 1.4c-6-15.6-9.4-32.4-9.4-50c0-14.7 2.3-28.8 6.4-42.2C179.6 376.6 215.1 384 256 384s76.4-7.4 87.6-22.8C347.7 374.6 350 388.7 350 403.4c0 17.6-3.4 34.4-9.4 50c6-.9 12.1-1.4 18.2-1.4c38.3 0 73.3 18.1 94.7 46.6c6.3 8.4 16.1 13.4 26.5 13.4c17.7 0 32-14.3 32-32c0-28-18.6-58-52-77.9c31.2-19.6 52-54.3 52-94.1c0-61.9-50.1-112-112-112c-35.2 0-70.1 13.6-97.1 36.9C323.7 206 336 172.3 336 136c0-53-35-104-68.2-131.7C264.6 1.5 260.4 0 256 0z"/>
</svg>
