<svg xmlns="http://www.w3.org/2000/svg" viewBox="0 0 384 512" fill="#bda662">
  <path d="M192 0C171 0 160 16 160 32c0 14.5 9.4 27.6 23.3 31.4C226.7 75.3 256 122.9 256 176c0 35.3-28.7 64-64 64H176c-35.3 0-64-28.7-64-64c0-23.7 13.1-45.5 34.6-56.6C163.6 109.1 176 90.7 176 72c0-22.1-17.9-40-40-40C60.9 32 0 92.9 0 168c0 30.6 10.4 59.8 29.5 83.3c35.6 43.6 92.5 66.8 152 70.3V352h-21.5c-20.9 0-39-14.7-42.5-35.3C114 296.3 96.5 280 76.5 280H64c-35.3 0-64 28.7-64 64c0 30.9 21.9 56.8 51.2 62.7C74.6 443.5 128 471.2 128 512h128c0-40.8 53.4-68.5 76.8-105.3C362.1 400.8 384 374.9 384 344c0-35.3-28.7-64-64-64h-12.5c-20 0-37.5 16.3-41 36.7c-3.5 20.6-21.6 35.3-42.5 35.3H202.5V321.6c59.5-3.5 116.4-26.7 152-70.3C373.6 227.8 384 198.6 384 168c0-75.1-60.9-136-136-136c-22.1 0-40 17.9-40 40c0 18.7 12.4 37.1 29.4 47.4C258.9 130.5 272 152.3 272 176c0 35.3-28.7 64-64 64h-16c-35.3 0-64-28.7-64-64c0-53.1 29.3-100.7 72.7-112.6C214.6 59.6 224 46.5 224 32c0-16-11-32-32-32z"/>
</svg>
